<svg width="180" height="180" viewBox="0 0 180 180" xmlns="http://www.w3.org/2000/svg">
  <defs>
    <radialGradient id="coinG" cx="30%" cy="30%">
      <stop offset="0%" style="stop-color:#FFD700"/>
      <stop offset="100%" style="stop-color:#FFA500"/>
    </radialGradient>
    <linearGradient id="walletG" x1="0%" y1="0%" x2="0%" y2="100%">
      <stop offset="0%" style="stop-color:#5DD9C1"/>
      <stop offset="100%" style="stop-color:#3CAED6"/>
    </linearGradient>
  </defs>
  <rect width="180" height="180" fill="#ffffff" rx="40"/>
  
  <!-- Money -->
  <g transform="translate(70, 28)">
    <rect x="5" y="0" width="32" height="22" rx="3" fill="#7CB342" stroke="#2E7D32" stroke-width="2"/>
    <rect x="0" y="4" width="32" height="22" rx="3" fill="#9CCC65" stroke="#2E7D32" stroke-width="2"/>
    <text x="16" y="19" font-family="Arial" font-size="12" font-weight="bold" fill="#2E7D32" text-anchor="middle">$</text>
  </g>
  
  <!-- Wallet -->
  <g transform="translate(42, 50)">
    <rect x="0" y="10" width="98" height="52" rx="6" fill="url(#walletG)" stroke="#1E3A5F" stroke-width="3"/>
    <path d="M 0 10 Q 0 5, 5 5 L 93 5 Q 98 5, 98 10 L 98 22 L 0 22 Z" fill="#4BA3C3" stroke="#1E3A5F" stroke-width="3"/>
    <circle cx="84" cy="36" r="6" fill="#1E3A5F" stroke="#FFD700" stroke-width="1.5"/>
    <circle cx="84" cy="36" r="3" fill="#FFD700"/>
  </g>
  
  <!-- Coins -->
  <g transform="translate(35, 80)">
    <ellipse cx="14" cy="28" rx="13" ry="12" fill="url(#coinG)" stroke="#D97706" stroke-width="2"/>
    <circle cx="14" cy="28" r="10" fill="none" stroke="#D97706" stroke-width="1"/>
    <text x="14" y="32" font-family="Arial" font-size="10" font-weight="bold" fill="#D97706" text-anchor="middle">$</text>
    
    <ellipse cx="32" cy="24" rx="15" ry="13" fill="url(#coinG)" stroke="#D97706" stroke-width="2"/>
    <circle cx="32" cy="24" r="11" fill="none" stroke="#D97706" stroke-width="1"/>
    <text x="32" y="29" font-family="Arial" font-size="11" font-weight="bold" fill="#D97706" text-anchor="middle">$</text>
    
    <ellipse cx="52" cy="26" rx="13" ry="12" fill="url(#coinG)" stroke="#D97706" stroke-width="2"/>
    <circle cx="52" cy="26" r="10" fill="none" stroke="#D97706" stroke-width="1"/>
    <text x="52" y="30" font-family="Arial" font-size="10" font-weight="bold" fill="#D97706" text-anchor="middle">$</text>
  </g>
  
  <!-- Sparkles -->
  <g fill="#FFD700" opacity="0.7">
    <path d="M 46 44 L 48 50 L 54 52 L 48 54 L 46 60 L 44 54 L 38 52 L 44 50 Z"/>
    <path d="M 130 50 L 133 58 L 141 61 L 133 64 L 130 72 L 127 64 L 119 61 L 127 58 Z"/>
  </g>
  
  <!-- Swoosh -->
  <path d="M 126 64 Q 140 74, 147 88" fill="none" stroke="#FFA500" stroke-width="3" stroke-linecap="round" opacity="0.5"/>
  
  <!-- Text -->
  <text x="90" y="145" font-family="Arial Black, sans-serif" font-size="22" font-weight="900" fill="#1E3A5F" text-anchor="middle">EXPENSE</text>
  <text x="90" y="165" font-family="Arial Black, sans-serif" font-size="18" font-weight="900" fill="#4CAF50" text-anchor="middle">TRACKER</text>
</svg>
